PathFileType	4	(X/Y/Z)	C:\Users\Biomechanik\SynologyDrive\AlexP\Athlete_03\Athlete_3_22_07_06\sq_90_EMG\marker_experimental.trc																																																																																																																																																																															
DataRate	CameraRate	NumFrames	NumMarkers	Units	OrigDataRate	OrigDataStartFrame	OrigNumFrames																																																																																																																																																																											
200	200	4	59	mm	200	519	1384																																																																																																																																																																											
Frame#	Time	BL			BR			GLAB			RFHD			LFHD			C7			T6			SPINMOL			SPINM2			SPINM3			T12			BELTOL			BELT2			BELT3			SACROL			SACR2			SACR3			LTHOL			LTH2			LTH3			LSHAOL			LSHA2			LSHA3			LHEE			LTOE			LM5			RTHOL			RTH2			RTH3			RSHAOL			RSHA2			RSHA3			RHEE			RTOE			RM5			STRN			XIPH			LACR			LUAOL			LUA2			LUA3			LLAOL			LLA2			LLA3			LWRU			RACR			RUAOL			RUA3			RLAOL			RLA2			RLA3			RWRU			RUA2			USERMO0			USERMO1			USERMO2			USERMO3			USERMO4			USERMO5		
		X1	Y1	Z1	X2	Y2	Z2	X3	Y3	Z3	X4	Y4	Z4	X5	Y5	Z5	X6	Y6	Z6	X7	Y7	Z7	X8	Y8	Z8	X9	Y9	Z9	X10	Y10	Z10	X11	Y11	Z11	X12	Y12	Z12	X13	Y13	Z13	X14	Y14	Z14	X15	Y15	Z15	X16	Y16	Z16	X17	Y17	Z17	X18	Y18	Z18	X19	Y19	Z19	X20	Y20	Z20	X21	Y21	Z21	X22	Y22	Z22	X23	Y23	Z23	X24	Y24	Z24	X25	Y25	Z25	X26	Y26	Z26	X27	Y27	Z27	X28	Y28	Z28	X29	Y29	Z29	X30	Y30	Z30	X31	Y31	Z31	X32	Y32	Z32	X33	Y33	Z33	X34	Y34	Z34	X35	Y35	Z35	X36	Y36	Z36	X37	Y37	Z37	X38	Y38	Z38	X39	Y39	Z39	X40	Y40	Z40	X41	Y41	Z41	X42	Y42	Z42	X43	Y43	Z43	X44	Y44	Z44	X45	Y45	Z45	X46	Y46	Z46	X47	Y47	Z47	X48	Y48	Z48	X49	Y49	Z49	X50	Y50	Z50	X51	Y51	Z51	X52	Y52	Z52	X53	Y53	Z53	X54	Y54	Z54	X55	Y55	Z55	X56	Y56	Z56	X57	Y57	Z57	X58	Y58	Z58	X59	Y59	Z59
																																																																																																																																																																																		
520	2.595	139.4572144	1117.331909	-2306.19165	200.4185791	1185.954834	-86.11559296	507.2118835	1346.063354	-1188.279541	444.7311707	1360.266113	-1113.207031	445.6474915	1357.150391	-1268.788818	269.865448	1264.002319	-1185.039673	119.4132004	1139.125488	-1191.355957	98.9688797	1119.639648	-1193.589111	58.23161316	1070.557373	-1145.627075	68.12162018	1066.063354	-1194.267822	48.75822449	1023.443481	-1188.598755	5.735079765	1005.967346	-1185.529785	-24.58560562	953.2020264	-1133.85791	-29.22774887	954.4748535	-1183.830078	-64.98140717	884.0829468	-1210.337158	-55.06242752	892.3692627	-1160.778687	-92.99978638	839.0403442	-1170.951904	68.28031158	684.6403809	-1462.024536	58.11234665	605.6834717	-1471.713379	97.11135864	634.9852905	-1485.248291	144.1394501	321.6902466	-1583.967041	98.93531799	257.3706665	-1576.219727	147.2836456	259.9033508	-1588.124268	59.36283112	39.80428696	-1518.029907	263.3936462	48.21196365	-1559.008179	206.4830017	23.68517685	-1657.436401	69.58633423	654.9473877	-904.6217041	133.2882233	630.3377075	-863.2677002	93.28143311	603.7427979	-878.0719604	109.0140839	318.5580139	-793.3039551	140.2690277	247.5681915	-777.822998	96.09680939	258.5577393	-799.2827148	47.48099899	36.93252182	-874.0769043	240.8207245	44.28844833	-793.3636475	169.4727783	36.74111557	-709.8144531	358.0598755	1112.978394	-1197.534424	321.9934082	957.2427368	-1188.740845	228.8550873	1200.939819	-1374.222412	95.31860352	1112.309692	-1400.29834	60.4005928	1073.336182	-1360.570313	59.96603394	1068.894409	-1410.858887	48.66610718	1032.403076	-1486.150024	93.69511414	1047.896851	-1530.301147	90.76371002	1080.05603	-1491.975464	139.2128601	1123.056519	-1542.757813	254.686264	1207.068848	-1010.001343	133.0726166	1101.128174	-961.4661865	74.43010712	1081.55835	-965.6489258	83.57371521	1063.626221	-886.1958008	127.7711945	1109.595581	-896.0888062	123.7711563	1093.01355	-847.7196655	154.9337921	1130.555786	-828.9257202	nan	nan	nan	0.188675001	0.077145897	-0.241991997	0.0471147	0.063030601	-0.035256099	0.054616701	0.039949201	-0.069246098	0.041298799	0.197727993	-0.799202025	0.328696996	2.980259895	-0.296346009	2.792320013	0	0
521	2.6	139.3799896	1114.852661	-2306.100586	200.853653	1183.598511	-86.0370636	507.3580017	1343.496338	-1188.210571	444.8764648	1357.681274	-1113.140747	445.7973938	1354.545288	-1268.731445	270.0263367	1261.448486	-1184.976563	119.5293884	1136.685059	-1191.254028	99.09844208	1117.256592	-1193.513916	58.27548981	1068.235962	-1145.563354	68.19415283	1063.713623	-1194.19397	48.77741623	1021.228394	-1188.503296	5.702505589	1004.006592	-1185.42688	-24.7999115	951.2943726	-1133.80481	-29.44613266	952.6335449	-1183.774658	-65.42469025	882.4092407	-1210.363159	-55.50444412	890.6309814	-1160.80249	-93.57126617	837.4025879	-1171.029663	67.92601776	683.5822754	-1462.495728	58.11689758	604.6166382	-1472.425659	96.9871521	634.1377563	-1485.863403	144.7489471	321.4969177	-1584.728638	99.40727997	257.2745667	-1576.796997	147.7592621	259.6784058	-1588.709717	59.376297	39.86656952	-1518.038086	263.3938293	48.20772171	-1559.020508	206.4799805	23.67424202	-1657.448608	69.41534424	653.7850952	-904.5088501	133.296814	629.7304688	-863.1062622	93.4328537	602.8327026	-877.7576294	109.7031021	318.4289246	-792.7904053	140.7979279	247.3319855	-777.4916382	96.63877106	258.4777527	-798.8883057	47.50215149	36.95166397	-874.0895996	240.83284	44.28107452	-793.3726196	169.4825897	36.75684738	-709.826355	358.1269531	1110.377808	-1197.511597	321.8929138	954.6136475	-1188.773438	228.9532623	1198.413574	-1374.169556	95.389328	1109.837402	-1400.27356	60.44536209	1070.89563	-1360.545776	60.01831436	1066.435791	-1410.832642	48.71846771	1029.935547	-1486.109375	93.7615509	1045.419556	-1530.251099	90.84402466	1077.56604	-1491.930298	139.3074951	1120.570679	-1542.676758	254.9044342	1204.479492	-1009.912048	133.2491455	1098.616333	-961.3460083	74.58143616	1079.095215	-965.5075684	83.7223587	1061.175537	-886.0386963	127.9307861	1107.125732	-895.9714966	123.9614258	1090.548218	-847.593811	155.1531372	1128.084717	-828.8224487	nan	nan	nan	0.189362004	0.080153503	-0.246307001	0.0478618	0.063561097	-0.035143301	0.0534245	0.040334702	-0.072164498	0.0421906	0.200342	-0.796498001	0.327059001	2.980550051	-0.294939995	2.7932899	0	0
522	2.605	139.2937775	1112.372681	-2306.005859	201.2846527	1181.231689	-85.95619965	507.516449	1340.946167	-1188.135864	445.0340881	1355.114624	-1113.06897	445.9620972	1351.958862	-1268.669434	270.1983032	1258.914185	-1184.911133	119.6574173	1134.26001	-1191.146606	99.23914337	1114.888916	-1193.432007	58.33163452	1065.931152	-1145.490723	68.27832794	1061.379028	-1194.111328	48.80880356	1019.031311	-1188.397339	5.683719635	1002.063843	-1185.3125	-24.99463463	949.4025269	-1133.740967	-29.64597702	950.8097534	-1183.70813	-65.83804321	880.7820435	-1210.378662	-55.91082764	888.9420776	-1160.817749	-94.11592865	835.8197021	-1171.090088	67.56707764	682.5562134	-1462.962769	58.10243225	603.5855103	-1473.135498	96.84880066	633.3173218	-1486.474243	145.3239288	321.3071899	-1585.487427	99.85242462	257.177063	-1577.378662	148.2088318	259.4579163	-1589.296387	59.38898849	39.92748642	-1518.048218	263.3927307	48.20510864	-1559.036255	206.4760437	23.65987206	-1657.463501	69.24326324	652.645874	-904.4002686	133.2974243	629.1313477	-862.9547729	93.57198334	601.9418945	-877.4515991	110.37117	318.3013	-792.2883911	141.3108063	247.1001587	-777.166748	97.16613007	258.3963318	-798.5010376	47.52312088	36.97166443	-874.1022949	240.845932	44.27568436	-793.3773804	169.4924927	36.77120209	-709.8378296	358.2042847	1107.796631	-1197.484253	321.8027039	952.0065918	-1188.805054	229.0576782	1195.906128	-1374.111084	95.47020721	1107.375732	-1400.246704	60.49966431	1068.4646	-1360.519165	60.08317184	1063.985107	-1410.804321	48.78466034	1027.474121	-1486.064453	93.83951569	1042.950806	-1530.197754	90.93301392	1075.085815	-1491.879517	139.4076691	1118.095947	-1542.59375	255.128006	1201.9104	-1009.821045	133.4322357	1096.118774	-961.2177124	74.74320221	1076.641479	-965.3604736	83.8843689	1058.734253	-885.8775635	128.1031952	1104.665649	-895.8496094	124.1629944	1088.095459	-847.4633789	155.3818054	1125.626221	-828.7156982	nan	nan	nan	0.189687997	0.082447201	-0.251982987	0.048923701	0.064260401	-0.035128798	0.051778499	0.040619899	-0.0752436	0.043152601	0.202765003	-0.793637991	0.325037003	2.980570078	-0.293015987	2.794039965	0	0
523	2.61	139.1985779	1109.891602	-2305.907227	201.7114105	1178.853271	-85.87330627	507.687561	1338.415649	-1188.057739	445.2046204	1352.570068	-1112.993896	446.1410522	1349.393188	-1268.604736	270.380249	1256.400879	-1184.842041	119.7979813	1131.85144	-1191.033447	99.39186859	1112.53894	-1193.34314	58.4010582	1063.645386	-1145.408691	68.37476349	1059.062134	-1194.019409	48.85306931	1016.854614	-1188.28125	5.678900719	1000.141418	-1185.186768	-25.17015457	947.5293579	-1133.665649	-29.82764244	949.0059204	-1183.630005	-66.22464752	879.1971436	-1210.382813	-56.28531647	887.2979736	-1160.823486	-94.63502502	834.2854614	-1171.132446	67.20233154	681.5635376	-1463.422363	58.06811523	602.5904541	-1473.840576	96.69536591	632.5247192	-1487.078735	145.8634186	321.1210327	-1586.241089	100.2699051	257.0787048	-1577.962402	148.6315155	259.2422485	-1589.882568	59.40108871	39.98705292	-1518.060181	263.3903809	48.20414734	-1559.055542	206.4712067	23.64216614	-1657.480957	69.07058716	651.5317993	-904.2930298	133.2906494	628.5413818	-862.8106079	93.6987915	601.0720825	-877.1511841	111.0186386	318.1751404	-791.7980347	141.8074951	246.8729248	-776.8471069	97.67855835	258.3135681	-798.1205444	47.5439949	36.99274063	-874.1149902	240.8600464	44.2723732	-793.3777466	169.5021362	36.78411484	-709.8484497	358.2923584	1105.237305	-1197.451782	321.7237244	949.4230957	-1188.834473	229.1683044	1193.418823	-1374.046875	95.56171417	1104.925171	-1400.21814	60.56435394	1066.043701	-1360.490845	60.16172409	1061.542358	-1410.774414	48.86628342	1025.018066	-1486.015381	93.93054199	1040.490356	-1530.141113	91.03088379	1072.615845	-1491.822388	139.5138092	1115.631714	-1542.508789	255.35672	1199.363403	-1009.727966	133.6231384	1093.634644	-961.078064	74.91842651	1074.195313	-965.2056274	84.063591	1056.299805	-885.7111206	128.2909851	1102.213623	-895.7215576	124.3787689	1085.653931	-847.3273315	155.6216431	1123.179688	-828.6052246	nan	nan	nan	0.189236	0.083830498	-0.258744001	0.0502849	0.065094396	-0.035241898	0.0496994	0.0408266	-0.078402698	0.044108201	0.204842001	-0.790491998	0.322762996	2.980400085	-0.290493995	2.794589996	0	0
